<svg width="200" height="135" viewBox="0 0 200 135" fill="none" xmlns="http://www.w3.org/2000/svg">
<path d="M97.8 67.39C97.8 78.85 96.57 88.78 94.11 97.18C91.65 105.58 88.23 112.54 83.85 118.06C79.53 123.58 74.37 127.69 68.37 130.39C62.43 133.09 55.98 134.44 49.02 134.44C42.06 134.44 35.61 133.09 29.67 130.39C23.79 127.69 18.69 123.58 14.37 118.06C10.05 112.54 6.66 105.58 4.2 97.18C1.8 88.78 0.6 78.85 0.6 67.39C0.6 55.93 1.8 46 4.2 37.6C6.66 29.2 10.05 22.24 14.37 16.72C18.69 11.2 23.79 7.11999 29.67 4.47999C35.61 1.77999 42.06 0.429996 49.02 0.429996C55.98 0.429996 62.43 1.77999 68.37 4.47999C74.37 7.11999 79.53 11.2 83.85 16.72C88.23 22.24 91.65 29.2 94.11 37.6C96.57 46 97.8 55.93 97.8 67.39ZM69 67.39C69 58.33 68.43 50.92 67.29 45.16C66.15 39.34 64.62 34.78 62.7 31.48C60.84 28.18 58.71 25.93 56.31 24.73C53.91 23.47 51.48 22.84 49.02 22.84C46.56 22.84 44.13 23.47 41.73 24.73C39.39 25.93 37.29 28.18 35.43 31.48C33.63 34.78 32.16 39.34 31.02 45.16C29.94 50.92 29.4 58.33 29.4 67.39C29.4 76.51 29.94 83.95 31.02 89.71C32.16 95.47 33.63 100.03 35.43 103.39C37.29 106.69 39.39 108.97 41.73 110.23C44.13 111.43 46.56 112.03 49.02 112.03C51.48 112.03 53.91 111.43 56.31 110.23C58.71 108.97 60.84 106.69 62.7 103.39C64.62 100.03 66.15 95.47 67.29 89.71C68.43 83.95 69 76.51 69 67.39ZM155.594 0.429996C162.074 0.429996 167.894 1.38999 173.054 3.30999C178.274 5.16999 182.714 7.77999 186.374 11.14C190.034 14.5 192.824 18.52 194.744 23.2C196.724 27.82 197.714 32.92 197.714 38.5C197.714 43.3 197.024 47.74 195.644 51.82C194.324 55.9 192.494 59.8 190.154 63.52C187.814 67.18 185.084 70.75 181.964 74.23C178.904 77.65 175.634 81.13 172.154 84.67L146.504 110.95C149.804 109.99 153.044 109.24 156.224 108.7C159.464 108.1 162.494 107.8 165.314 107.8H189.794C192.794 107.8 195.164 108.64 196.904 110.32C198.644 111.94 199.514 114.1 199.514 116.8V133H107.354V124C107.354 122.26 107.714 120.4 108.434 118.42C109.154 116.44 110.414 114.64 112.214 113.02L150.014 74.95C153.254 71.71 156.074 68.62 158.474 65.68C160.874 62.74 162.854 59.86 164.414 57.04C165.974 54.16 167.144 51.31 167.924 48.49C168.704 45.61 169.094 42.58 169.094 39.4C169.094 34.18 167.834 30.19 165.314 27.43C162.854 24.61 159.074 23.2 153.974 23.2C151.874 23.2 149.954 23.5 148.214 24.1C146.474 24.7 144.914 25.51 143.534 26.53C142.154 27.55 140.954 28.75 139.934 30.13C138.974 31.51 138.194 33.01 137.594 34.63C136.634 37.33 135.404 39.28 133.904 40.48C132.464 41.68 130.484 42.28 127.964 42.28C127.364 42.28 126.704 42.25 125.984 42.19C125.324 42.13 124.634 42.04 123.914 41.92L109.154 39.31C110.114 32.77 111.944 27.07 114.644 22.21C117.404 17.35 120.794 13.3 124.814 10.06C128.894 6.81999 133.544 4.41999 138.764 2.85999C143.984 1.23999 149.594 0.429996 155.594 0.429996Z" fill="#E5E5E5"/>
</svg>
