<svg width="202" height="135" viewBox="0 0 202 135" fill="none" xmlns="http://www.w3.org/2000/svg">
<path d="M97.8 67.39C97.8 78.85 96.57 88.78 94.11 97.18C91.65 105.58 88.23 112.54 83.85 118.06C79.53 123.58 74.37 127.69 68.37 130.39C62.43 133.09 55.98 134.44 49.02 134.44C42.06 134.44 35.61 133.09 29.67 130.39C23.79 127.69 18.69 123.58 14.37 118.06C10.05 112.54 6.66 105.58 4.2 97.18C1.8 88.78 0.6 78.85 0.6 67.39C0.6 55.93 1.8 46 4.2 37.6C6.66 29.2 10.05 22.24 14.37 16.72C18.69 11.2 23.79 7.11999 29.67 4.47999C35.61 1.77999 42.06 0.429996 49.02 0.429996C55.98 0.429996 62.43 1.77999 68.37 4.47999C74.37 7.11999 79.53 11.2 83.85 16.72C88.23 22.24 91.65 29.2 94.11 37.6C96.57 46 97.8 55.93 97.8 67.39ZM69 67.39C69 58.33 68.43 50.92 67.29 45.16C66.15 39.34 64.62 34.78 62.7 31.48C60.84 28.18 58.71 25.93 56.31 24.73C53.91 23.47 51.48 22.84 49.02 22.84C46.56 22.84 44.13 23.47 41.73 24.73C39.39 25.93 37.29 28.18 35.43 31.48C33.63 34.78 32.16 39.34 31.02 45.16C29.94 50.92 29.4 58.33 29.4 67.39C29.4 76.51 29.94 83.95 31.02 89.71C32.16 95.47 33.63 100.03 35.43 103.39C37.29 106.69 39.39 108.97 41.73 110.23C44.13 111.43 46.56 112.03 49.02 112.03C51.48 112.03 53.91 111.43 56.31 110.23C58.71 108.97 60.84 106.69 62.7 103.39C64.62 100.03 66.15 95.47 67.29 89.71C68.43 83.95 69 76.51 69 67.39ZM158.114 0.429996C164.594 0.429996 170.354 1.36 175.394 3.22C180.434 5.02 184.694 7.48 188.174 10.6C191.654 13.72 194.294 17.35 196.094 21.49C197.894 25.57 198.794 29.89 198.794 34.45C198.794 38.59 198.374 42.25 197.534 45.43C196.694 48.55 195.434 51.28 193.754 53.62C192.134 55.9 190.094 57.85 187.634 59.47C185.234 61.09 182.474 62.44 179.354 63.52C193.874 68.56 201.134 78.43 201.134 93.13C201.134 100.09 199.874 106.15 197.354 111.31C194.834 116.47 191.444 120.76 187.184 124.18C182.984 127.6 178.094 130.18 172.514 131.92C166.934 133.6 161.114 134.44 155.054 134.44C148.814 134.44 143.264 133.78 138.404 132.46C133.544 131.08 129.224 128.98 125.444 126.16C121.664 123.28 118.334 119.62 115.454 115.18C112.634 110.74 110.174 105.46 108.074 99.34L120.494 94.3C121.574 93.82 122.624 93.49 123.644 93.31C124.724 93.13 125.774 93.04 126.794 93.04C128.714 93.04 130.424 93.43 131.924 94.21C133.484 94.93 134.654 96.01 135.434 97.45C138.134 102.43 140.984 106.06 143.984 108.34C147.044 110.56 150.614 111.67 154.694 111.67C157.814 111.67 160.514 111.16 162.794 110.14C165.134 109.06 167.054 107.71 168.554 106.09C170.114 104.41 171.284 102.52 172.064 100.42C172.844 98.32 173.234 96.19 173.234 94.03C173.234 91.21 173.024 88.69 172.604 86.47C172.244 84.19 171.164 82.24 169.364 80.62C167.564 79 164.834 77.77 161.174 76.93C157.574 76.03 152.534 75.58 146.054 75.58V56.32C151.514 56.32 155.924 55.9 159.284 55.06C162.644 54.22 165.224 53.08 167.024 51.64C168.884 50.14 170.114 48.34 170.714 46.24C171.314 44.14 171.614 41.83 171.614 39.31C171.614 34.15 170.354 30.19 167.834 27.43C165.374 24.61 161.594 23.2 156.494 23.2C154.394 23.2 152.474 23.5 150.734 24.1C148.994 24.7 147.434 25.51 146.054 26.53C144.674 27.55 143.474 28.75 142.454 30.13C141.494 31.51 140.714 33.01 140.114 34.63C139.154 37.33 137.924 39.28 136.424 40.48C134.984 41.68 133.004 42.28 130.484 42.28C129.884 42.28 129.224 42.25 128.504 42.19C127.844 42.13 127.154 42.04 126.434 41.92L111.674 39.31C112.634 32.77 114.464 27.07 117.164 22.21C119.924 17.35 123.314 13.3 127.334 10.06C131.414 6.81999 136.064 4.41999 141.284 2.85999C146.504 1.23999 152.114 0.429996 158.114 0.429996Z" fill="#E5E5E5"/>
</svg>
