<svg width="203" height="135" viewBox="0 0 203 135" fill="none" xmlns="http://www.w3.org/2000/svg">
<path d="M97.8 67.39C97.8 78.85 96.57 88.78 94.11 97.18C91.65 105.58 88.23 112.54 83.85 118.06C79.53 123.58 74.37 127.69 68.37 130.39C62.43 133.09 55.98 134.44 49.02 134.44C42.06 134.44 35.61 133.09 29.67 130.39C23.79 127.69 18.69 123.58 14.37 118.06C10.05 112.54 6.66 105.58 4.2 97.18C1.8 88.78 0.6 78.85 0.6 67.39C0.6 55.93 1.8 46 4.2 37.6C6.66 29.2 10.05 22.24 14.37 16.72C18.69 11.2 23.79 7.11999 29.67 4.47999C35.61 1.77999 42.06 0.429996 49.02 0.429996C55.98 0.429996 62.43 1.77999 68.37 4.47999C74.37 7.11999 79.53 11.2 83.85 16.72C88.23 22.24 91.65 29.2 94.11 37.6C96.57 46 97.8 55.93 97.8 67.39ZM69 67.39C69 58.33 68.43 50.92 67.29 45.16C66.15 39.34 64.62 34.78 62.7 31.48C60.84 28.18 58.71 25.93 56.31 24.73C53.91 23.47 51.48 22.84 49.02 22.84C46.56 22.84 44.13 23.47 41.73 24.73C39.39 25.93 37.29 28.18 35.43 31.48C33.63 34.78 32.16 39.34 31.02 45.16C29.94 50.92 29.4 58.33 29.4 67.39C29.4 76.51 29.94 83.95 31.02 89.71C32.16 95.47 33.63 100.03 35.43 103.39C37.29 106.69 39.39 108.97 41.73 110.23C44.13 111.43 46.56 112.03 49.02 112.03C51.48 112.03 53.91 111.43 56.31 110.23C58.71 108.97 60.84 106.69 62.7 103.39C64.62 100.03 66.15 95.47 67.29 89.71C68.43 83.95 69 76.51 69 67.39ZM189.254 82.06H202.754V97.72C202.754 99.1 202.274 100.3 201.314 101.32C200.414 102.34 199.094 102.85 197.354 102.85H189.254V133H164.954V102.85H112.214C110.474 102.85 108.884 102.31 107.444 101.23C106.064 100.15 105.194 98.8 104.834 97.18L101.954 83.41L162.614 1.87H189.254V82.06ZM164.954 47.86C164.954 45.76 165.014 43.51 165.134 41.11C165.314 38.65 165.554 36.13 165.854 33.55L131.204 82.06H164.954V47.86Z" fill="#E5E5E5"/>
</svg>
