<svg width="41" height="32" viewBox="0 0 41 32" fill="none" xmlns="http://www.w3.org/2000/svg">
<path opacity="0.2" d="M18.5613 22.9212C18.5657 24.0145 18.3391 25.096 17.8971 26.0914C17.4552 27.0868 16.8083 27.9726 16.0007 28.6881C14.2678 30.3069 11.9904 31.1768 9.64527 31.1155C6.66814 31.1155 4.3175 30.0547 2.59336 27.9332C0.871017 25.8236 -0.0492005 23.1483 0.00202934 20.3994C0.00202934 13.8181 1.76543 8.86544 5.29224 5.54156C8.81905 2.21767 12.7231 0.37748 17.0045 0.0209753V7.2402C14.847 7.47542 12.8044 8.35411 11.1304 9.76718C10.2689 10.427 9.55921 11.2722 9.05132 12.2433C8.54343 13.2143 8.2497 14.2876 8.19084 15.3874C8.90189 15.0328 9.68405 14.8533 10.4749 14.8631C13.0321 14.8631 15.0191 15.6058 16.436 17.0913C17.1517 17.8691 17.7084 18.7855 18.0734 19.7866C18.4383 20.7878 18.6042 21.8535 18.5613 22.9212ZM40.3265 22.9212C40.3318 24.0147 40.1057 25.0965 39.6637 26.092C39.2217 27.0876 38.5742 27.9733 37.7659 28.6881C36.033 30.3069 33.7556 31.1768 31.4104 31.1155C28.4401 31.1155 26.1083 30.0547 24.4149 27.9332C22.7132 25.8136 21.8054 23.1425 21.8542 20.3994C21.8542 13.8181 23.5989 8.86544 27.0881 5.54156C30.5774 2.21767 34.4763 0.370485 38.785 0V7.21922C36.6322 7.46355 34.5969 8.34951 32.9314 9.76718C32.0635 10.4231 31.3473 11.2668 30.834 12.2381C30.3206 13.2095 30.0226 14.2847 29.9611 15.3874C30.6703 15.0327 31.4508 14.8531 32.2401 14.8631C34.7938 14.8631 36.7809 15.6058 38.2012 17.0913C38.9169 17.8688 39.4733 18.7853 39.8374 19.7866C40.2016 20.7879 40.3661 21.8537 40.3213 22.9212H40.3265Z" fill="#CEEFF0"/>
</svg>
