<svg width="120" height="64" viewBox="0 0 120 64" fill="none" xmlns="http://www.w3.org/2000/svg">
<rect x="0.5" y="0.5" width="119" height="63" rx="3.5" fill="#F4F5F7"/>
<path d="M35.2745 23.3814C34.3584 22.3372 32.7024 21.8895 30.584 21.8895H24.4355C24.2258 21.8894 24.023 21.9642 23.8634 22.1003C23.7039 22.2364 23.5982 22.425 23.5654 22.6322L21.0064 38.8698C20.9946 38.9452 20.9992 39.0222 21.0199 39.0956C21.0407 39.1689 21.0771 39.2369 21.1267 39.2949C21.1762 39.3528 21.2378 39.3993 21.3071 39.4312C21.3763 39.4631 21.4517 39.4796 21.528 39.4795H25.3237L26.2771 33.4328L26.2475 33.6222C26.2797 33.4155 26.3847 33.2271 26.5435 33.0909C26.7024 32.9548 26.9046 32.8798 27.1138 32.8796H28.9176C32.4611 32.8796 35.2357 31.4403 36.0462 27.2767C36.0702 27.1536 36.091 27.0338 36.1091 26.9166C36.3499 25.3778 36.1074 24.3303 35.2751 23.3819" fill="#003087"/>
<path d="M81.7441 31.1075C81.5121 32.6311 80.3486 32.6311 79.2234 32.6311H78.5831L79.0324 29.7864C79.0598 29.6146 79.2076 29.4882 79.3816 29.4882H79.6755C80.4416 29.4882 81.1651 29.4882 81.5383 29.9244C81.7611 30.1854 81.8284 30.5729 81.7441 31.1075ZM81.2543 27.1322H77.0098C76.8692 27.1323 76.7332 27.1825 76.6263 27.2738C76.5194 27.365 76.4485 27.4914 76.4264 27.6303L74.7113 38.5136C74.7034 38.564 74.7065 38.6156 74.7204 38.6647C74.7343 38.7139 74.7587 38.7594 74.7919 38.7982C74.825 38.8371 74.8662 38.8683 74.9126 38.8897C74.9589 38.9111 75.0094 38.9223 75.0604 38.9224H77.2385C77.4416 38.9224 77.6145 38.7746 77.6462 38.5743L78.1333 35.4878C78.1782 35.2016 78.4255 34.9898 78.7156 34.9898H80.0585C82.855 34.9898 84.4683 33.6375 84.8897 30.9554C85.0796 29.7832 84.8974 28.8616 84.3485 28.2164C83.7449 27.5071 82.675 27.1317 81.2548 27.1317" fill="#009CDE"/>
<path d="M51.4698 31.1076C51.2377 32.6312 50.0743 32.6312 48.9486 32.6312H48.3083L48.7576 29.7865C48.7849 29.6147 48.9327 29.4883 49.1067 29.4883H49.4006C50.1668 29.4883 50.8902 29.4883 51.2635 29.9245C51.4867 30.1855 51.554 30.573 51.4698 31.1076ZM50.98 27.1323H46.7354C46.4454 27.1323 46.198 27.3436 46.1526 27.6304L44.437 38.5137C44.429 38.5641 44.432 38.6157 44.4459 38.6649C44.4598 38.7141 44.4841 38.7597 44.5173 38.7985C44.5505 38.8374 44.5917 38.8686 44.6381 38.89C44.6845 38.9114 44.735 38.9225 44.7861 38.9225H46.8132C47.1032 38.9225 47.35 38.7112 47.3954 38.4245L47.859 35.4884C47.9038 35.2017 48.1512 34.9904 48.4412 34.9904H49.7842C52.5807 34.9904 54.194 33.6376 54.6154 30.9555C54.8053 29.7833 54.6231 28.8617 54.0742 28.2165C53.4705 27.5072 52.4007 27.1318 50.9805 27.1318L50.98 27.1323ZM60.8344 35.015C60.6374 36.1763 59.7164 36.9562 58.5403 36.9562C57.9509 36.9562 57.4787 36.7663 57.1755 36.4073C56.8745 36.0516 56.7618 35.5442 56.857 34.98C57.0398 33.8286 57.9767 33.0241 59.1347 33.0241C59.712 33.0241 60.1799 33.2157 60.4897 33.5779C60.8011 33.943 60.9236 34.453 60.8344 35.015ZM63.667 31.0584H61.6345C61.55 31.0583 61.4683 31.0884 61.4041 31.1433C61.3398 31.1982 61.2973 31.2742 61.2843 31.3577L61.1956 31.9258L61.0533 31.72C60.6134 31.0814 59.6321 30.8674 58.6525 30.8674C56.4071 30.8674 54.489 32.5694 54.1158 34.9554C53.9215 36.1468 54.1973 37.2845 54.8726 38.0786C55.4927 38.8081 56.3776 39.1118 57.4321 39.1118C59.2425 39.1118 60.2461 37.9494 60.2461 37.9494L60.1553 38.5142C60.1473 38.5647 60.1504 38.6164 60.1643 38.6656C60.1782 38.7148 60.2026 38.7604 60.2358 38.7993C60.2691 38.8382 60.3104 38.8693 60.3568 38.8907C60.4033 38.9121 60.4539 38.9231 60.505 38.923H62.335C62.6251 38.923 62.8724 38.7123 62.9179 38.425L64.0167 31.4677C64.0247 31.4172 64.0215 31.3655 64.0075 31.3163C63.9936 31.2671 63.9691 31.2215 63.9358 31.1826C63.9025 31.1438 63.8612 31.1126 63.8147 31.0912C63.7682 31.0699 63.7177 31.0589 63.6665 31.0589" fill="#003087"/>
<path d="M91.1076 35.0155C90.9106 36.1768 89.9896 36.9567 88.8135 36.9567C88.2241 36.9567 87.7518 36.7668 87.4486 36.4078C87.1476 36.052 87.0349 35.5447 87.1301 34.9805C87.3129 33.8291 88.2493 33.0246 89.4078 33.0246C89.9852 33.0246 90.4531 33.2162 90.7628 33.5784C91.0742 33.9435 91.1968 34.4535 91.1076 35.0155ZM93.9402 31.0589H91.9077C91.8232 31.0588 91.7414 31.0889 91.6772 31.1438C91.613 31.1987 91.5705 31.2747 91.5574 31.3582L91.4688 31.9263L91.3265 31.7205C90.8865 31.0818 89.9053 30.8679 88.9257 30.8679C86.6808 30.8679 84.7627 32.5698 84.3889 34.9559C84.1946 36.1473 84.471 37.285 85.1463 38.0791C85.7664 38.8086 86.6513 39.1123 87.7058 39.1123C89.5167 39.1123 90.5204 37.9499 90.5204 37.9499L90.4295 38.5147C90.4214 38.5652 90.4243 38.6168 90.438 38.666C90.4518 38.7152 90.4761 38.7609 90.5093 38.7997C90.5424 38.8386 90.5837 38.8699 90.6301 38.8912C90.6765 38.9126 90.727 38.9236 90.7781 38.9235H92.6076C92.8977 38.9235 93.145 38.7128 93.191 38.4255L94.2899 31.4682C94.2978 31.4177 94.2947 31.366 94.2807 31.3168C94.2667 31.2676 94.2423 31.222 94.209 31.1831C94.1757 31.1443 94.1344 31.1131 94.0879 31.0917C94.0414 31.0704 93.9908 31.0594 93.9397 31.0594" fill="#009CDE"/>
<path d="M74.4941 31.0592H72.4506C72.2553 31.0592 72.073 31.1561 71.9636 31.3181L69.1452 35.4685L67.9505 31.4801C67.9141 31.3584 67.8394 31.2517 67.7376 31.1758C67.6358 31.0999 67.5122 31.0589 67.3852 31.0587H65.3773C65.321 31.0587 65.2655 31.0722 65.2155 31.0979C65.1654 31.1237 65.1222 31.161 65.0895 31.2068C65.0567 31.2526 65.0354 31.3056 65.0272 31.3613C65.019 31.417 65.0242 31.4738 65.0424 31.5271L67.2916 38.1303L65.176 41.1156C65.1386 41.1686 65.1164 41.2309 65.112 41.2956C65.1076 41.3603 65.121 41.4249 65.1508 41.4825C65.1806 41.5401 65.2257 41.5884 65.2811 41.6222C65.3365 41.6559 65.4001 41.6738 65.4649 41.6738H67.5062C67.6988 41.6738 67.8799 41.5792 67.9905 41.4204L74.7841 31.6147C74.821 31.5617 74.8427 31.4996 74.8468 31.4351C74.8509 31.3707 74.8372 31.3064 74.8073 31.2491C74.7775 31.1919 74.7325 31.1439 74.6772 31.1104C74.622 31.077 74.5587 31.0592 74.4941 31.0592" fill="#003087"/>
<path d="M96.3366 27.4325L94.5941 38.515C94.5862 38.5655 94.5893 38.6171 94.6033 38.6663C94.6172 38.7155 94.6416 38.7611 94.6749 38.7999C94.7081 38.8388 94.7493 38.8699 94.7958 38.8913C94.8422 38.9127 94.8927 38.9238 94.9438 38.9238H96.6956C96.9856 38.9238 97.233 38.7126 97.2784 38.4258L98.9962 27.542C99.0042 27.4915 99.0012 27.4398 98.9873 27.3906C98.9734 27.3414 98.949 27.2958 98.9157 27.2569C98.8825 27.218 98.8412 27.1868 98.7947 27.1655C98.7482 27.1441 98.6977 27.1331 98.6465 27.1332H96.6863C96.6019 27.133 96.5202 27.163 96.4561 27.2178C96.3919 27.2726 96.3495 27.3486 96.3366 27.432" fill="#009CDE"/>
<path d="M35.2745 23.3814C34.3584 22.3372 32.7024 21.8895 30.584 21.8895H24.4355C24.2258 21.8894 24.023 21.9642 23.8634 22.1003C23.7039 22.2364 23.5982 22.425 23.5654 22.6322L21.0064 38.8698C20.9946 38.9452 20.9992 39.0222 21.0199 39.0956C21.0407 39.1689 21.0771 39.2369 21.1267 39.2949C21.1762 39.3528 21.2378 39.3993 21.3071 39.4312C21.3763 39.4631 21.4517 39.4796 21.528 39.4795H25.3237L26.2771 33.4328L26.2475 33.6222C26.2797 33.4155 26.3847 33.2271 26.5435 33.0909C26.7024 32.9548 26.9046 32.8798 27.1138 32.8796H28.9176C32.4611 32.8796 35.2357 31.4403 36.0462 27.2767C36.0702 27.1536 36.091 27.0338 36.1091 26.9166C36.3499 25.3778 36.1074 24.3303 35.2751 23.3819" fill="#003087"/>
<path d="M27.3016 26.937C27.3304 26.756 27.4227 26.5912 27.562 26.4721C27.7013 26.3531 27.8785 26.2876 28.0618 26.2874H32.882C33.4528 26.2874 33.9853 26.3246 34.4718 26.4023C34.7378 26.4451 35.0009 26.5039 35.2598 26.5785C35.5538 26.6612 35.8383 26.7745 36.1086 26.9167C36.3505 25.3773 36.1075 24.3304 35.2752 23.3814C34.3585 22.3378 32.703 21.8902 30.5846 21.8902H24.4356C24.2261 21.8903 24.0235 21.9652 23.8642 22.1013C23.7049 22.2374 23.5994 22.4258 23.5666 22.6328L21.0065 38.8688C20.9946 38.9441 20.9991 39.0212 21.0198 39.0946C21.0405 39.168 21.0768 39.236 21.1263 39.294C21.1759 39.352 21.2374 39.3986 21.3066 39.4305C21.3759 39.4625 21.4512 39.479 21.5275 39.479H25.3238L26.2771 33.4318L27.3016 26.937Z" fill="#003087"/>
<path d="M36.1094 26.9159C36.0906 27.0363 36.0696 27.1564 36.0464 27.276C35.236 31.439 32.4614 32.8789 28.9179 32.8789H27.1136C26.9044 32.879 26.7022 32.9539 26.5434 33.0901C26.3846 33.2263 26.2798 33.4148 26.2478 33.6215L25.324 39.4782L25.0613 41.1397C25.0509 41.2057 25.0549 41.2731 25.073 41.3374C25.0912 41.4017 25.123 41.4612 25.1664 41.512C25.2098 41.5628 25.2637 41.6035 25.3243 41.6315C25.385 41.6594 25.451 41.6739 25.5178 41.6738H28.7176C29.0963 41.6738 29.4181 41.398 29.4777 41.0242L29.5089 40.8612L30.112 37.0391L30.1503 36.8279C30.179 36.6467 30.2713 36.4818 30.4108 36.3627C30.5502 36.2436 30.7276 36.1782 30.911 36.1783H31.3898C34.4895 36.1783 36.9166 34.9196 37.6258 31.277C37.9214 29.7557 37.7681 28.4844 36.9855 27.5918C36.737 27.3151 36.4401 27.086 36.1094 26.9159Z" fill="#009CDE"/>
<path d="M35.2589 26.5789C35.1352 26.5422 35.0077 26.5094 34.8763 26.4804C34.745 26.4514 34.6093 26.4256 34.4703 26.4037C33.9832 26.3244 33.4513 26.2872 32.8799 26.2872H28.0603C27.8768 26.287 27.6993 26.3524 27.5599 26.4716C27.4205 26.5909 27.3283 26.7561 27.3001 26.9373L26.2756 33.4333L26.2461 33.6221C26.2781 33.4154 26.3829 33.2269 26.5417 33.0907C26.7005 32.9545 26.9027 32.8796 27.1119 32.8794H28.9162C32.4597 32.8794 35.2343 31.4402 36.0447 27.2766C36.0688 27.1535 36.0891 27.0342 36.1077 26.9165C35.8936 26.8045 35.6707 26.7104 35.4411 26.6352C35.3815 26.6155 35.3207 26.5969 35.2589 26.5783" fill="#012169"/>
<rect x="0.5" y="0.5" width="119" height="63" rx="3.5" stroke="#D7DADD"/>
</svg>
