<svg width="16" height="19" viewBox="0 0 16 19" fill="none" xmlns="http://www.w3.org/2000/svg">
<path d="M6.30162 5.93696C6.33038 5.75598 6.4227 5.59117 6.56201 5.47212C6.70132 5.35307 6.8785 5.28757 7.06176 5.28736H11.882C12.4528 5.28736 12.9853 5.32458 13.4718 5.40229C13.7378 5.44508 14.0009 5.50393 14.2598 5.57851C14.5538 5.66116 14.8383 5.77452 15.1086 5.91671C15.3505 4.37728 15.1075 3.33037 14.2752 2.38143C13.3585 1.33781 11.703 0.89015 9.58461 0.89015H3.43563C3.22611 0.890299 3.0235 0.965157 2.86421 1.10127C2.70493 1.23739 2.5994 1.42584 2.56658 1.63278L0.00651227 17.8688C-0.00543363 17.9441 -0.00090687 18.0212 0.0197809 18.0946C0.0404687 18.168 0.0768255 18.236 0.126346 18.294C0.175866 18.352 0.237373 18.3986 0.306627 18.4305C0.375882 18.4625 0.451237 18.479 0.527501 18.479H4.32383L5.27715 12.4318L6.30162 5.93696Z" fill="#003087"/>
</svg>
