<svg width="467" height="206" viewBox="0 0 467 206" fill="none" xmlns="http://www.w3.org/2000/svg">
<path d="M67.3991 70H51.581L75.6832 0.181816H94.706L118.774 70H102.956L85.4673 16.1364H84.9219L67.3991 70ZM66.4105 42.5568H103.774V54.0795H66.4105V42.5568ZM192.692 32.5682L179.396 33.3864C179.169 32.25 178.68 31.2273 177.93 30.3182C177.18 29.3864 176.192 28.6477 174.964 28.1023C173.76 27.5341 172.317 27.25 170.635 27.25C168.385 27.25 166.487 27.7273 164.942 28.6818C163.396 29.6136 162.624 30.8636 162.624 32.4318C162.624 33.6818 163.124 34.7386 164.124 35.6023C165.124 36.4659 166.839 37.1591 169.271 37.6818L178.749 39.5909C183.839 40.6364 187.635 42.3182 190.135 44.6364C192.635 46.9545 193.885 50 193.885 53.7727C193.885 57.2045 192.874 60.2159 190.851 62.8068C188.851 65.3977 186.101 67.4205 182.601 68.875C179.124 70.3068 175.112 71.0227 170.567 71.0227C163.635 71.0227 158.112 69.5795 153.999 66.6932C149.908 63.7841 147.51 59.8295 146.805 54.8295L161.089 54.0795C161.521 56.1932 162.567 57.8068 164.226 58.9205C165.885 60.0114 168.01 60.5568 170.601 60.5568C173.146 60.5568 175.192 60.0682 176.737 59.0909C178.305 58.0909 179.101 56.8068 179.124 55.2386C179.101 53.9205 178.544 52.8409 177.453 52C176.362 51.1364 174.68 50.4773 172.408 50.0227L163.339 48.2159C158.226 47.1932 154.419 45.4205 151.919 42.8977C149.442 40.375 148.203 37.1591 148.203 33.25C148.203 29.8864 149.112 26.9886 150.93 24.5568C152.771 22.125 155.351 20.25 158.669 18.9318C162.01 17.6136 165.919 16.9545 170.396 16.9545C177.01 16.9545 182.214 18.3523 186.01 21.1477C189.828 23.9432 192.055 27.75 192.692 32.5682ZM203.03 70V17.6364H216.871V26.875H217.484C218.575 23.8068 220.393 21.3864 222.939 19.6136C225.484 17.8409 228.53 16.9545 232.075 16.9545C235.666 16.9545 238.723 17.8523 241.246 19.6477C243.768 21.4205 245.45 23.8295 246.291 26.875H246.837C247.905 23.875 249.837 21.4773 252.632 19.6818C255.45 17.8636 258.78 16.9545 262.621 16.9545C267.507 16.9545 271.473 18.5114 274.518 21.625C277.587 24.7159 279.121 29.1023 279.121 34.7841V70H264.632V37.6477C264.632 34.7386 263.859 32.5568 262.314 31.1023C260.768 29.6477 258.837 28.9205 256.518 28.9205C253.882 28.9205 251.825 29.7614 250.348 31.4432C248.871 33.1023 248.132 35.2955 248.132 38.0227V70H234.053V37.3409C234.053 34.7727 233.314 32.7273 231.837 31.2045C230.382 29.6818 228.462 28.9205 226.075 28.9205C224.462 28.9205 223.007 29.3295 221.712 30.1477C220.439 30.9432 219.428 32.0682 218.678 33.5227C217.928 34.9545 217.553 36.6364 217.553 38.5682V70H203.03ZM305.524 70.9886C302.183 70.9886 299.206 70.4091 296.592 69.25C293.979 68.0682 291.911 66.3295 290.388 64.0341C288.888 61.7159 288.138 58.8295 288.138 55.375C288.138 52.4659 288.672 50.0227 289.74 48.0455C290.808 46.0682 292.263 44.4773 294.104 43.2727C295.945 42.0682 298.036 41.1591 300.376 40.5455C302.74 39.9318 305.217 39.5 307.808 39.25C310.854 38.9318 313.308 38.6364 315.172 38.3636C317.036 38.0682 318.388 37.6364 319.229 37.0682C320.07 36.5 320.49 35.6591 320.49 34.5455V34.3409C320.49 32.1818 319.808 30.5114 318.445 29.3295C317.104 28.1477 315.195 27.5568 312.717 27.5568C310.104 27.5568 308.024 28.1364 306.479 29.2955C304.933 30.4318 303.911 31.8636 303.411 33.5909L289.979 32.5C290.661 29.3182 292.001 26.5682 294.001 24.25C296.001 21.9091 298.581 20.1136 301.74 18.8636C304.922 17.5909 308.604 16.9545 312.786 16.9545C315.695 16.9545 318.479 17.2955 321.138 17.9773C323.82 18.6591 326.195 19.7159 328.263 21.1477C330.354 22.5795 332.001 24.4205 333.206 26.6705C334.411 28.8977 335.013 31.5682 335.013 34.6818V70H321.24V62.7386H320.831C319.99 64.375 318.865 65.8182 317.456 67.0682C316.047 68.2955 314.354 69.2614 312.376 69.9659C310.399 70.6477 308.115 70.9886 305.524 70.9886ZM309.683 60.9659C311.82 60.9659 313.706 60.5455 315.342 59.7045C316.979 58.8409 318.263 57.6818 319.195 56.2273C320.126 54.7727 320.592 53.125 320.592 51.2841V45.7273C320.138 46.0227 319.513 46.2955 318.717 46.5455C317.945 46.7727 317.07 46.9886 316.092 47.1932C315.115 47.375 314.138 47.5455 313.161 47.7045C312.183 47.8409 311.297 47.9659 310.501 48.0795C308.797 48.3295 307.308 48.7273 306.036 49.2727C304.763 49.8182 303.774 50.5568 303.07 51.4886C302.365 52.3977 302.013 53.5341 302.013 54.8977C302.013 56.875 302.729 58.3864 304.161 59.4318C305.615 60.4545 307.456 60.9659 309.683 60.9659ZM346.28 70V17.6364H360.359V26.7727H360.905C361.859 23.5227 363.462 21.0682 365.712 19.4091C367.962 17.7273 370.553 16.8864 373.484 16.8864C374.212 16.8864 374.996 16.9318 375.837 17.0227C376.678 17.1136 377.416 17.2386 378.053 17.3977V30.2841C377.371 30.0795 376.428 29.8977 375.223 29.7386C374.018 29.5795 372.916 29.5 371.916 29.5C369.78 29.5 367.871 29.9659 366.189 30.8977C364.53 31.8068 363.212 33.0795 362.234 34.7159C361.28 36.3523 360.803 38.2386 360.803 40.375V70H346.28ZM416.038 17.6364V28.5455H384.504V17.6364H416.038ZM391.663 5.09091H406.186V53.9091C406.186 55.25 406.391 56.2955 406.8 57.0455C407.209 57.7727 407.777 58.2841 408.504 58.5795C409.254 58.875 410.118 59.0227 411.095 59.0227C411.777 59.0227 412.459 58.9659 413.141 58.8523C413.822 58.7159 414.345 58.6136 414.709 58.5455L416.993 69.3523C416.266 69.5795 415.243 69.8409 413.925 70.1364C412.607 70.4545 411.004 70.6477 409.118 70.7159C405.618 70.8523 402.55 70.3864 399.913 69.3182C397.3 68.25 395.266 66.5909 393.811 64.3409C392.357 62.0909 391.641 59.25 391.663 55.8182V5.09091ZM14.3281 186L0.078125 133.636H14.7713L22.8849 168.818H23.3622L31.8168 133.636H46.2372L54.8281 168.614H55.2713L63.2486 133.636H77.9077L63.6918 186H48.3168L39.3168 153.068H38.669L29.669 186H14.3281ZM100.587 186.989C97.2457 186.989 94.2685 186.409 91.6548 185.25C89.0412 184.068 86.973 182.33 85.4503 180.034C83.9503 177.716 83.2003 174.83 83.2003 171.375C83.2003 168.466 83.7344 166.023 84.8026 164.045C85.8707 162.068 87.3253 160.477 89.1662 159.273C91.0071 158.068 93.098 157.159 95.4389 156.545C97.8026 155.932 100.28 155.5 102.871 155.25C105.916 154.932 108.371 154.636 110.234 154.364C112.098 154.068 113.45 153.636 114.291 153.068C115.132 152.5 115.553 151.659 115.553 150.545V150.341C115.553 148.182 114.871 146.511 113.507 145.33C112.166 144.148 110.257 143.557 107.78 143.557C105.166 143.557 103.087 144.136 101.541 145.295C99.9957 146.432 98.973 147.864 98.473 149.591L85.0412 148.5C85.723 145.318 87.0639 142.568 89.0639 140.25C91.0639 137.909 93.6435 136.114 96.8026 134.864C99.9844 133.591 103.666 132.955 107.848 132.955C110.757 132.955 113.541 133.295 116.2 133.977C118.882 134.659 121.257 135.716 123.325 137.148C125.416 138.58 127.064 140.42 128.268 142.67C129.473 144.898 130.075 147.568 130.075 150.682V186H116.303V178.739H115.893C115.053 180.375 113.928 181.818 112.518 183.068C111.109 184.295 109.416 185.261 107.439 185.966C105.462 186.648 103.178 186.989 100.587 186.989ZM104.746 176.966C106.882 176.966 108.768 176.545 110.405 175.705C112.041 174.841 113.325 173.682 114.257 172.227C115.189 170.773 115.655 169.125 115.655 167.284V161.727C115.2 162.023 114.575 162.295 113.78 162.545C113.007 162.773 112.132 162.989 111.155 163.193C110.178 163.375 109.2 163.545 108.223 163.705C107.246 163.841 106.359 163.966 105.564 164.08C103.859 164.33 102.371 164.727 101.098 165.273C99.8253 165.818 98.8366 166.557 98.1321 167.489C97.4276 168.398 97.0753 169.534 97.0753 170.898C97.0753 172.875 97.7912 174.386 99.223 175.432C100.678 176.455 102.518 176.966 104.746 176.966ZM148.433 205.636C146.592 205.636 144.865 205.489 143.251 205.193C141.661 204.92 140.342 204.568 139.297 204.136L142.57 193.295C144.274 193.818 145.808 194.102 147.172 194.148C148.558 194.193 149.751 193.875 150.751 193.193C151.774 192.511 152.604 191.352 153.24 189.716L154.092 187.5L135.308 133.636H150.581L161.422 172.091H161.967L172.911 133.636H188.286L167.933 191.659C166.956 194.477 165.626 196.932 163.945 199.023C162.286 201.136 160.183 202.761 157.638 203.898C155.092 205.057 152.024 205.636 148.433 205.636ZM245.788 133.636V144.545H214.254V133.636H245.788ZM221.413 121.091H235.936V169.909C235.936 171.25 236.141 172.295 236.55 173.045C236.959 173.773 237.527 174.284 238.254 174.58C239.004 174.875 239.868 175.023 240.845 175.023C241.527 175.023 242.209 174.966 242.891 174.852C243.572 174.716 244.095 174.614 244.459 174.545L246.743 185.352C246.016 185.58 244.993 185.841 243.675 186.136C242.357 186.455 240.754 186.648 238.868 186.716C235.368 186.852 232.3 186.386 229.663 185.318C227.05 184.25 225.016 182.591 223.561 180.341C222.107 178.091 221.391 175.25 221.413 171.818V121.091ZM278.345 187.023C273.05 187.023 268.47 185.898 264.607 183.648C260.766 181.375 257.8 178.216 255.709 174.17C253.618 170.102 252.572 165.386 252.572 160.023C252.572 154.614 253.618 149.886 255.709 145.841C257.8 141.773 260.766 138.614 264.607 136.364C268.47 134.091 273.05 132.955 278.345 132.955C283.641 132.955 288.209 134.091 292.05 136.364C295.913 138.614 298.891 141.773 300.982 145.841C303.072 149.886 304.118 154.614 304.118 160.023C304.118 165.386 303.072 170.102 300.982 174.17C298.891 178.216 295.913 181.375 292.05 183.648C288.209 185.898 283.641 187.023 278.345 187.023ZM278.413 175.773C280.822 175.773 282.834 175.091 284.447 173.727C286.061 172.341 287.277 170.455 288.095 168.068C288.936 165.682 289.357 162.966 289.357 159.92C289.357 156.875 288.936 154.159 288.095 151.773C287.277 149.386 286.061 147.5 284.447 146.114C282.834 144.727 280.822 144.034 278.413 144.034C275.982 144.034 273.936 144.727 272.277 146.114C270.641 147.5 269.402 149.386 268.561 151.773C267.743 154.159 267.334 156.875 267.334 159.92C267.334 162.966 267.743 165.682 268.561 168.068C269.402 170.455 270.641 172.341 272.277 173.727C273.936 175.091 275.982 175.773 278.413 175.773ZM379.348 148.568L366.053 149.386C365.825 148.25 365.337 147.227 364.587 146.318C363.837 145.386 362.848 144.648 361.621 144.102C360.416 143.534 358.973 143.25 357.291 143.25C355.041 143.25 353.143 143.727 351.598 144.682C350.053 145.614 349.28 146.864 349.28 148.432C349.28 149.682 349.78 150.739 350.78 151.602C351.78 152.466 353.496 153.159 355.928 153.682L365.405 155.591C370.496 156.636 374.291 158.318 376.791 160.636C379.291 162.955 380.541 166 380.541 169.773C380.541 173.205 379.53 176.216 377.507 178.807C375.507 181.398 372.757 183.42 369.257 184.875C365.78 186.307 361.768 187.023 357.223 187.023C350.291 187.023 344.768 185.58 340.655 182.693C336.564 179.784 334.166 175.83 333.462 170.83L347.746 170.08C348.178 172.193 349.223 173.807 350.882 174.92C352.541 176.011 354.666 176.557 357.257 176.557C359.803 176.557 361.848 176.068 363.393 175.091C364.962 174.091 365.757 172.807 365.78 171.239C365.757 169.92 365.2 168.841 364.109 168C363.018 167.136 361.337 166.477 359.064 166.023L349.996 164.216C344.882 163.193 341.075 161.42 338.575 158.898C336.098 156.375 334.859 153.159 334.859 149.25C334.859 145.886 335.768 142.989 337.587 140.557C339.428 138.125 342.007 136.25 345.325 134.932C348.666 133.614 352.575 132.955 357.053 132.955C363.666 132.955 368.871 134.352 372.666 137.148C376.484 139.943 378.712 143.75 379.348 148.568ZM389.686 186V133.636H404.209V186H389.686ZM396.982 126.886C394.822 126.886 392.97 126.17 391.425 124.739C389.902 123.284 389.141 121.545 389.141 119.523C389.141 117.523 389.902 115.807 391.425 114.375C392.97 112.92 394.822 112.193 396.982 112.193C399.141 112.193 400.982 112.92 402.504 114.375C404.05 115.807 404.822 117.523 404.822 119.523C404.822 121.545 404.05 123.284 402.504 124.739C400.982 126.17 399.141 126.886 396.982 126.886ZM415.842 205.636V133.636H430.161V142.432H430.808C431.445 141.023 432.365 139.591 433.57 138.136C434.797 136.659 436.388 135.432 438.342 134.455C440.32 133.455 442.774 132.955 445.706 132.955C449.524 132.955 453.047 133.955 456.274 135.955C459.501 137.932 462.081 140.92 464.013 144.92C465.945 148.898 466.911 153.886 466.911 159.886C466.911 165.727 465.967 170.659 464.081 174.682C462.217 178.682 459.672 181.716 456.445 183.784C453.24 185.83 449.649 186.852 445.672 186.852C442.854 186.852 440.456 186.386 438.479 185.455C436.524 184.523 434.922 183.352 433.672 181.943C432.422 180.511 431.467 179.068 430.808 177.614H430.365V205.636H415.842ZM430.058 159.818C430.058 162.932 430.49 165.648 431.354 167.966C432.217 170.284 433.467 172.091 435.104 173.386C436.74 174.659 438.729 175.295 441.07 175.295C443.433 175.295 445.433 174.648 447.07 173.352C448.706 172.034 449.945 170.216 450.786 167.898C451.649 165.557 452.081 162.864 452.081 159.818C452.081 156.795 451.661 154.136 450.82 151.841C449.979 149.545 448.74 147.75 447.104 146.455C445.467 145.159 443.456 144.511 441.07 144.511C438.706 144.511 436.706 145.136 435.07 146.386C433.456 147.636 432.217 149.409 431.354 151.705C430.49 154 430.058 156.705 430.058 159.818Z" fill="white"/>
</svg>
