<svg width="1440" height="149" viewBox="0 0 1440 149" fill="none" xmlns="http://www.w3.org/2000/svg">
<path d="M0 0.00195312L98.0261 20.3944C159.266 33.1343 222.553 32.3175 283.444 18.0013C334.059 6.10103 386.417 3.50843 437.96 10.3501L476.714 15.4942C521.366 21.4213 566.615 21.2873 611.232 15.0958L637.298 11.4786C692.011 3.88604 747.63 5.92342 801.641 17.4986C867.779 31.6729 936.187 31.5156 1002.26 17.0372L1004.18 16.6172C1054.4 5.61109 1106.07 2.70159 1157.21 7.99877L1208.13 13.2728C1242.29 16.8103 1276.71 16.82 1310.87 13.302L1440 0.00195312V148.002H0V0.00195312Z" fill="url(#paint0_linear_1323_191)" fill-opacity="0.8"/>
<path d="M0 0.00195312L98.0261 20.3944C159.266 33.1343 222.553 32.3175 283.444 18.0013C334.059 6.10103 386.417 3.50843 437.96 10.3501L476.714 15.4942C521.366 21.4213 566.615 21.2873 611.232 15.0958L637.298 11.4786C692.011 3.88604 747.63 5.92342 801.641 17.4986C867.779 31.6729 936.187 31.5156 1002.26 17.0372L1004.18 16.6172C1054.4 5.61109 1106.07 2.70159 1157.21 7.99877L1208.13 13.2728C1242.29 16.8103 1276.71 16.82 1310.87 13.302L1440 0.00195312V148.002H0V0.00195312Z" fill="url(#paint1_linear_1323_191)"/>
<defs>
<linearGradient id="paint0_linear_1323_191" x1="0" y1="74.002" x2="1440" y2="74.002" gradientUnits="userSpaceOnUse">
<stop stop-color="#0052D4"/>
<stop offset="0.5" stop-color="#4364F7"/>
<stop offset="1" stop-color="#6FB1FC"/>
</linearGradient>
<linearGradient id="paint1_linear_1323_191" x1="0" y1="74.0002" x2="1440" y2="74.0003" gradientUnits="userSpaceOnUse">
<stop stop-color="#004E84"/>
<stop offset="1" stop-color="#01ADEB"/>
</linearGradient>
</defs>
</svg>
