<svg width="1440" height="148" viewBox="0 0 1440 148" fill="none" xmlns="http://www.w3.org/2000/svg">
<path d="M1440 0L1341.97 20.3925C1280.73 33.1324 1217.45 32.3155 1156.56 17.9993C1105.94 6.09907 1053.58 3.50648 1002.04 10.3482L963.286 15.4923C918.634 21.4193 873.385 21.2853 828.768 15.0938L802.702 11.4766C747.989 3.88409 692.37 5.92146 638.359 17.4966C572.221 31.671 503.813 31.5136 437.741 17.0352L435.824 16.6153C385.597 5.60913 333.935 2.69964 282.79 7.99682L231.868 13.2709C197.714 16.8083 163.286 16.8181 129.129 13.3001L0 0V148H1440V0Z" fill="url(#paint0_linear_1323_192)" fill-opacity="0.8"/>
<path d="M1440 0L1341.97 20.3925C1280.73 33.1324 1217.45 32.3155 1156.56 17.9993C1105.94 6.09907 1053.58 3.50648 1002.04 10.3482L963.286 15.4923C918.634 21.4193 873.385 21.2853 828.768 15.0938L802.702 11.4766C747.989 3.88409 692.37 5.92146 638.359 17.4966C572.221 31.671 503.813 31.5136 437.741 17.0352L435.824 16.6153C385.597 5.60913 333.935 2.69964 282.79 7.99682L231.868 13.2709C197.714 16.8083 163.286 16.8181 129.129 13.3001L0 0V148H1440V0Z" fill="url(#paint1_linear_1323_192)"/>
<defs>
<linearGradient id="paint0_linear_1323_192" x1="1441" y1="73.5" x2="1" y2="73.5" gradientUnits="userSpaceOnUse">
<stop stop-color="#0052D4"/>
<stop offset="0.5" stop-color="#4364F7"/>
<stop offset="1" stop-color="#6FB1FC"/>
</linearGradient>
<linearGradient id="paint1_linear_1323_192" x1="1440" y1="73.9982" x2="0" y2="73.9983" gradientUnits="userSpaceOnUse">
<stop stop-color="#004E84"/>
<stop offset="1" stop-color="#01ADEB"/>
</linearGradient>
</defs>
</svg>
