<svg width="800" height="147" viewBox="0 0 800 147" fill="none" xmlns="http://www.w3.org/2000/svg">
<path d="M-640 21.3938L-591.581 11.2718C-515.244 -4.68625 -436.232 -2.54866 -360.87 17.5134L-323.673 27.4154C-256.507 45.2958 -185.642 43.7253 -119.334 22.8868C-52.041 1.73882 19.9227 0.441751 87.9343 19.151L137.877 32.8898C190.591 47.3909 245.327 53.1482 299.905 49.9324L387.468 44.7732C418.753 42.9298 449.796 38.149 480.187 30.494L514.679 21.8058C596.241 1.26154 681.666 1.62426 763.05 22.8604L800 32.502V141.516L-640 146.002V21.3938Z" fill="url(#paint0_linear_1323_261)" fill-opacity="0.5"/>
<defs>
<linearGradient id="paint0_linear_1323_261" x1="-715.552" y1="65.2559" x2="1108.71" y2="65.2559" gradientUnits="userSpaceOnUse">
<stop stop-color="#0052D4"/>
<stop offset="0.5" stop-color="#4364F7"/>
<stop offset="1" stop-color="#6FB1FC"/>
</linearGradient>
</defs>
</svg>
