<svg width="73" height="149" viewBox="0 0 73 149" fill="none" xmlns="http://www.w3.org/2000/svg">
<path d="M-1367 0.00390625L-1268.97 20.3964C-1207.73 33.1363 -1144.45 32.3194 -1083.56 18.0032C-1032.94 6.10298 -980.583 3.51039 -929.04 10.3521L-890.286 15.4962C-845.634 21.4232 -800.385 21.2892 -755.768 15.0977L-729.702 11.4805C-674.989 3.88799 -619.37 5.92537 -565.359 17.5005C-499.221 31.6749 -430.813 31.5175 -364.741 17.0391L-362.824 16.6192C-312.597 5.61304 -260.935 2.70355 -209.79 8.00072L-158.868 13.2748C-124.714 16.8122 -90.2856 16.822 -56.1294 13.304L73 0.00390625V148.004H-1367V0.00390625Z" fill="url(#paint0_linear_1323_266)" fill-opacity="0.8"/>
<path d="M-1367 0.00390625L-1268.97 20.3964C-1207.73 33.1363 -1144.45 32.3194 -1083.56 18.0032C-1032.94 6.10298 -980.583 3.51039 -929.04 10.3521L-890.286 15.4962C-845.634 21.4232 -800.385 21.2892 -755.768 15.0977L-729.702 11.4805C-674.989 3.88799 -619.37 5.92537 -565.359 17.5005C-499.221 31.6749 -430.813 31.5175 -364.741 17.0391L-362.824 16.6192C-312.597 5.61304 -260.935 2.70355 -209.79 8.00072L-158.868 13.2748C-124.714 16.8122 -90.2856 16.822 -56.1294 13.304L73 0.00390625V148.004H-1367V0.00390625Z" fill="url(#paint1_linear_1323_266)"/>
<path d="M-1367 0.00390625L-1268.97 20.3964C-1207.73 33.1363 -1144.45 32.3194 -1083.56 18.0032C-1032.94 6.10298 -980.583 3.51039 -929.04 10.3521L-890.286 15.4962C-845.634 21.4232 -800.385 21.2892 -755.768 15.0977L-729.702 11.4805C-674.989 3.88799 -619.37 5.92537 -565.359 17.5005C-499.221 31.6749 -430.813 31.5175 -364.741 17.0391L-362.824 16.6192C-312.597 5.61304 -260.935 2.70355 -209.79 8.00072L-158.868 13.2748C-124.714 16.8122 -90.2856 16.822 -56.1294 13.304L73 0.00390625V148.004H-1367V0.00390625Z" fill="url(#paint2_linear_1323_266)"/>
<defs>
<linearGradient id="paint0_linear_1323_266" x1="-1367" y1="74.0039" x2="73" y2="74.0039" gradientUnits="userSpaceOnUse">
<stop stop-color="#0052D4"/>
<stop offset="0.5" stop-color="#4364F7"/>
<stop offset="1" stop-color="#6FB1FC"/>
</linearGradient>
<linearGradient id="paint1_linear_1323_266" x1="-647" y1="0.00390625" x2="-647" y2="148.004" gradientUnits="userSpaceOnUse">
<stop stop-color="#004E84"/>
<stop offset="1" stop-color="#01ADEB"/>
</linearGradient>
<linearGradient id="paint2_linear_1323_266" x1="-1367" y1="74.0021" x2="73" y2="74.0022" gradientUnits="userSpaceOnUse">
<stop stop-color="#004E84"/>
<stop offset="1" stop-color="#01ADEB"/>
</linearGradient>
</defs>
</svg>
