<svg width="1440" height="149" viewBox="0 0 1440 149" fill="none" xmlns="http://www.w3.org/2000/svg">
<path d="M1440 0.00195312L1341.97 20.3944C1280.73 33.1343 1217.45 32.3175 1156.56 18.0013C1105.94 6.10103 1053.58 3.50843 1002.04 10.3501L963.286 15.4942C918.634 21.4213 873.385 21.2873 828.768 15.0958L802.702 11.4786C747.989 3.88604 692.37 5.92342 638.359 17.4986C572.221 31.6729 503.813 31.5156 437.741 17.0372L435.824 16.6172C385.597 5.61109 333.935 2.70159 282.79 7.99877L231.868 13.2728C197.714 16.8103 163.286 16.82 129.129 13.302L0 0.00195312V148.002H1440V0.00195312Z" fill="url(#paint0_linear_1323_267)" fill-opacity="0.8"/>
<path d="M1440 0.00195312L1341.97 20.3944C1280.73 33.1343 1217.45 32.3175 1156.56 18.0013C1105.94 6.10103 1053.58 3.50843 1002.04 10.3501L963.286 15.4942C918.634 21.4213 873.385 21.2873 828.768 15.0958L802.702 11.4786C747.989 3.88604 692.37 5.92342 638.359 17.4986C572.221 31.6729 503.813 31.5156 437.741 17.0372L435.824 16.6172C385.597 5.61109 333.935 2.70159 282.79 7.99877L231.868 13.2728C197.714 16.8103 163.286 16.82 129.129 13.302L0 0.00195312V148.002H1440V0.00195312Z" fill="url(#paint1_linear_1323_267)"/>
<path d="M1440 0.00195312L1341.97 20.3944C1280.73 33.1343 1217.45 32.3175 1156.56 18.0013C1105.94 6.10103 1053.58 3.50843 1002.04 10.3501L963.286 15.4942C918.634 21.4213 873.385 21.2873 828.768 15.0958L802.702 11.4786C747.989 3.88604 692.37 5.92342 638.359 17.4986C572.221 31.6729 503.813 31.5156 437.741 17.0372L435.824 16.6172C385.597 5.61109 333.935 2.70159 282.79 7.99877L231.868 13.2728C197.714 16.8103 163.286 16.82 129.129 13.302L0 0.00195312V148.002H1440V0.00195312Z" fill="url(#paint2_linear_1323_267)"/>
<defs>
<linearGradient id="paint0_linear_1323_267" x1="1441" y1="73.502" x2="1" y2="73.502" gradientUnits="userSpaceOnUse">
<stop stop-color="#0052D4"/>
<stop offset="0.5" stop-color="#4364F7"/>
<stop offset="1" stop-color="#6FB1FC"/>
</linearGradient>
<linearGradient id="paint1_linear_1323_267" x1="720" y1="0.00195312" x2="720" y2="148.002" gradientUnits="userSpaceOnUse">
<stop stop-color="#004E84"/>
<stop offset="1" stop-color="#01ADEB"/>
</linearGradient>
<linearGradient id="paint2_linear_1323_267" x1="1440" y1="74.0002" x2="0" y2="74.0003" gradientUnits="userSpaceOnUse">
<stop stop-color="#004E84"/>
<stop offset="1" stop-color="#01ADEB"/>
</linearGradient>
</defs>
</svg>
