<svg width="1440" height="159" viewBox="0 0 1440 159" fill="none" xmlns="http://www.w3.org/2000/svg">
<path d="M2879 34.3918L2830.58 24.2698C2754.24 8.31179 2675.23 10.4494 2599.87 30.5114L2562.67 40.4135C2495.51 58.2938 2424.64 56.7233 2358.33 35.8849C2291.04 14.7369 2219.08 13.4398 2151.07 32.1491L2101.12 45.8878C2048.41 60.389 1993.67 66.1463 1939.09 62.9305L1851.53 57.7712C1820.25 55.9278 1789.2 51.1471 1758.81 43.492L1724.32 34.8038C1642.76 14.2596 1557.33 14.6223 1475.95 35.8584L1439 45.5V154.514L2879 159V34.3918Z" fill="url(#paint0_linear_4744_57)" fill-opacity="0.5"/>
<path d="M-1 34.3918L47.4195 24.2698C123.756 8.31179 202.768 10.4494 278.13 30.5114L315.327 40.4135C382.493 58.2938 453.358 56.7233 519.666 35.8849C586.959 14.7369 658.923 13.4398 726.934 32.1491L776.877 45.8878C829.591 60.389 884.327 66.1463 938.905 62.9305L1026.47 57.7712C1057.75 55.9278 1088.8 51.1471 1119.19 43.492L1153.68 34.8038C1235.24 14.2596 1320.67 14.6223 1402.05 35.8584L1439 45.5V154.514L-1 159V34.3918Z" fill="url(#paint1_linear_4744_57)" fill-opacity="0.5"/>
<defs>
<linearGradient id="paint0_linear_4744_57" x1="2954.55" y1="78.2539" x2="1130.29" y2="78.2539" gradientUnits="userSpaceOnUse">
<stop stop-color="#0052D4"/>
<stop offset="0.5" stop-color="#4364F7"/>
<stop offset="1" stop-color="#6FB1FC"/>
</linearGradient>
<linearGradient id="paint1_linear_4744_57" x1="-76.5525" y1="78.2539" x2="1747.71" y2="78.2539" gradientUnits="userSpaceOnUse">
<stop stop-color="#0052D4"/>
<stop offset="0.5" stop-color="#4364F7"/>
<stop offset="1" stop-color="#6FB1FC"/>
</linearGradient>
</defs>
</svg>
