<svg width="1440" height="152" viewBox="0 0 1440 152" fill="none" xmlns="http://www.w3.org/2000/svg">
<path d="M1440 40.5L1342 15.6774C1282.28 0.548723 1219.45 3.00465 1161.09 22.7495L1131.23 32.8503C1078.48 50.6967 1021.09 49.1541 969.374 28.4993C916.902 7.54297 858.622 6.27052 805.285 24.9167L786.856 31.3592C732.952 50.2039 674.187 49.815 620.537 30.2586C573.614 13.1544 522.612 10.6569 474.242 23.0948L446.254 30.2918C387.559 45.3848 325.613 41.7342 269.097 19.8515C218.7 0.33828 163.858 -4.72345 110.742 5.23592L0 26V152H1440V40.5Z" fill="url(#paint0_linear_1323_188)"/>
<defs>
<linearGradient id="paint0_linear_1323_188" x1="1440" y1="71" x2="0" y2="71" gradientUnits="userSpaceOnUse">
<stop stop-color="#0052D4"/>
<stop offset="0.5" stop-color="#4364F7"/>
<stop offset="1" stop-color="#6FB1FC"/>
</linearGradient>
</defs>
</svg>
