<svg width="1440" height="152" viewBox="0 0 1440 152" fill="none" xmlns="http://www.w3.org/2000/svg">
<path d="M0 40.5L97.9977 15.6774C157.724 0.548723 220.551 3.00465 278.914 22.7495L308.771 32.8503C361.523 50.6967 418.909 49.1541 470.626 28.4993C523.098 7.54297 581.378 6.27052 634.715 24.9167L653.144 31.3592C707.048 50.2039 765.813 49.815 819.463 30.2586C866.386 13.1544 917.388 10.6569 965.758 23.0948L993.746 30.2918C1052.44 45.3848 1114.39 41.7342 1170.9 19.8515C1221.3 0.33828 1276.14 -4.72345 1329.26 5.23592L1440 26V152H0V40.5Z" fill="url(#paint0_linear_1323_189)"/>
<defs>
<linearGradient id="paint0_linear_1323_189" x1="0" y1="71" x2="1440" y2="71" gradientUnits="userSpaceOnUse">
<stop stop-color="#0052D4"/>
<stop offset="0.5" stop-color="#4364F7"/>
<stop offset="1" stop-color="#6FB1FC"/>
</linearGradient>
</defs>
</svg>
