<svg width="1440" height="146" viewBox="0 0 1440 146" fill="none" xmlns="http://www.w3.org/2000/svg">
<path d="M1440 21.3918L1391.58 11.2698C1315.24 -4.68821 1236.23 -2.55062 1160.87 17.5114L1123.67 27.4135C1056.51 45.2938 985.642 43.7233 919.334 22.8849C852.041 1.73687 780.077 0.439798 712.066 19.1491L662.123 32.8878C609.409 47.389 554.673 53.1463 500.095 49.9305L412.532 44.7712C381.247 42.9278 350.204 38.1471 319.813 30.492L285.321 21.8038C203.759 1.25959 118.334 1.6223 36.9498 22.8584L0.00012207 32.5V141.514L1440 146V21.3918Z" fill="url(#paint0_linear_1323_185)" fill-opacity="0.5"/>
<defs>
<linearGradient id="paint0_linear_1323_185" x1="1515.55" y1="65.2539" x2="-308.714" y2="65.2539" gradientUnits="userSpaceOnUse">
<stop stop-color="#0052D4"/>
<stop offset="0.5" stop-color="#4364F7"/>
<stop offset="1" stop-color="#6FB1FC"/>
</linearGradient>
</defs>
</svg>
