<svg width="1440" height="147" viewBox="0 0 1440 147" fill="none" xmlns="http://www.w3.org/2000/svg">
<path d="M1440 21.3938L1391.58 11.2718C1315.24 -4.68625 1236.23 -2.54866 1160.87 17.5134L1123.67 27.4154C1056.51 45.2958 985.642 43.7253 919.334 22.8868V22.8868C852.041 1.73882 780.077 0.441752 712.066 19.151L662.123 32.8898C609.409 47.3909 554.673 53.1482 500.095 49.9324L412.532 44.7732C381.247 42.9298 350.204 38.149 319.813 30.494L285.321 21.8058C203.759 1.26154 118.334 1.62426 36.9498 22.8604L0.00012207 32.502V141.516L1440 146.002V21.3938Z" fill="url(#paint0_linear_1323_260)" fill-opacity="0.5"/>
<defs>
<linearGradient id="paint0_linear_1323_260" x1="1515.55" y1="65.2559" x2="-308.714" y2="65.2559" gradientUnits="userSpaceOnUse">
<stop stop-color="#0052D4"/>
<stop offset="0.5" stop-color="#4364F7"/>
<stop offset="1" stop-color="#6FB1FC"/>
</linearGradient>
</defs>
</svg>
