<svg width="600" height="153" viewBox="0 0 600 153" fill="none" xmlns="http://www.w3.org/2000/svg">
<path d="M-840 40.502L-742.002 15.6793C-682.276 0.550677 -619.449 3.0066 -561.086 22.7514L-531.229 32.8522C-478.477 50.6987 -421.091 49.156 -369.374 28.5012V28.5012C-316.902 7.54492 -258.622 6.27247 -205.285 24.9186L-186.856 31.3612C-132.952 50.2058 -74.1871 49.8169 -20.5368 30.2605V30.2605C26.3862 13.1563 77.3881 10.6589 125.758 23.0968L153.746 30.2938C212.441 45.3868 274.387 41.7361 330.903 19.8535V19.8535C381.3 0.340232 436.142 -4.72149 489.258 5.23787L600 26.002V152.002H-840V40.502Z" fill="url(#paint0_linear_1323_264)"/>
<defs>
<linearGradient id="paint0_linear_1323_264" x1="-840" y1="71.002" x2="600" y2="71.002" gradientUnits="userSpaceOnUse">
<stop stop-color="#0052D4"/>
<stop offset="0.5" stop-color="#4364F7"/>
<stop offset="1" stop-color="#6FB1FC"/>
</linearGradient>
</defs>
</svg>
